<svg width="48" height="48" xmlns="http://www.w3.org/2000/svg">

 <g>
  <title>background</title>
  <rect fill="none" id="canvas_background" height="402" width="582" y="-1" x="-1"/>
 </g>
 <g>
  <title>Layer 1</title>
  <path id="svg_2" fill="#333333" d="m37.43294,30.32385c-0.426,-0.28 -0.986,-0.1704 -1.266,0.2435l-1.1442,1.6799l0,-13.7556c0,-3.6641 -2.9946,-6.6464 -6.6587,-6.6464l-9.7263,0c-0.5112,0 -0.9129,0.4138 -0.9129,0.9129c0,0.5113 0.4017,0.913 0.9129,0.913l9.7263,0c2.6659,0 4.8327,2.1668 4.8327,4.8205l0,13.7799l-1.1443,-1.7042c-0.2921,-0.4139 -0.8521,-0.5235 -1.2782,-0.2435c-0.4138,0.2922 -0.5234,0.8522 -0.2434,1.2782l2.812,4.151c0.1704,0.2435 0.4625,0.4017 0.7547,0.4017c0.3043,0 0.5965,-0.1582 0.7669,-0.4017l2.812,-4.151c0.28,-0.426 0.1704,-0.986 -0.2435,-1.2782z"/>
  <path id="svg_3" fill="#333333" d="m29.36224,34.32875l-9.7141,0c-2.678,0 -4.8449,-2.1668 -4.8449,-4.8205l0,-13.792l1.1565,1.7164c0.2799,0.4138 0.8399,0.5234 1.266,0.2434c0.4138,-0.2921 0.5234,-0.8521 0.2434,-1.2782l-2.812,-4.151c-0.3408,-0.499 -1.1808,-0.499 -1.5094,0l-2.8241,4.151c-0.2801,0.4261 -0.1705,0.9861 0.2434,1.2782c0.1582,0.0974 0.3409,0.1583 0.5113,0.1583c0.3043,0 0.5843,-0.1461 0.7669,-0.4017l1.1321,-1.6799l0,13.7555c0,3.6641 2.9945,6.6465 6.6708,6.6465l9.7141,0c0.5112,0 0.913,-0.4139 0.913,-0.9129c0,-0.5113 -0.4018,-0.9131 -0.913,-0.9131z"/>
 </g>
</svg>